<svg xmlns="http://www.w3.org/2000/svg" stroke="currentColor" width="24" height="24" fill="none">
    <defs>
        <filter height="1.69" y="-.345" width="1.383" x="-.192" id="A" color-interpolation-filters="sRGB">
            <feGaussianBlur stdDeviation=".599"/>
        </filter>
    </defs>
    <path d="M19.276 4.331L6.614 19.834z" stroke-width=".5" stroke-linejoin="round"/>
    <path d="M4 16l4.586-4.586c.781-.781 1.8-.745 2.581.035.298.213 1.216 1.188 1.216 1.188"/>
    <path d="M14.367 6.992h.01" stroke-linejoin="round" stroke-linecap="round"/>
    <path d="M12.383 12.637l3.511 3.222m-2-2l1.586-1.586a2 2 0 0 1 2.828 0l1.457 1.457" filter="url(#A)"/>
    <path stroke-linejoin="round" d="M18 20c1.082-.222 2-.895 2-2V6a2 2 0 0 0-2-2H6a2 2 0 0 0-2 2v12a2 2 0 0 0 2 2z"/>
</svg>
